<svg width="43" height="40" viewBox="0 0 43 40" fill="none" xmlns="http://www.w3.org/2000/svg">
<rect x="0.5" y="0.5" width="42" height="39" rx="2.5" stroke="white"/>
<path fill-rule="evenodd" clip-rule="evenodd" d="M12.9062 10.3438C11.1804 10.3438 9.78125 11.7429 9.78125 13.4687V27.5312C9.78125 29.2571 11.1804 30.6562 12.9062 30.6562H20.7188C22.1749 30.6562 23.3984 29.6603 23.7453 28.3125H26.1875C27.6436 28.3125 28.8671 27.3166 29.2141 25.9688H30.0937C31.8196 25.9688 33.2187 24.5696 33.2187 22.8438V18.1562C33.2187 16.4304 31.8196 15.0312 30.0937 15.0312H29.2141C28.8671 13.6834 27.6436 12.6875 26.1875 12.6875H23.7453C23.3984 11.3397 22.1749 10.3438 20.7188 10.3438H12.9062ZM20.7188 12.2969H12.9062C12.259 12.2969 11.7344 12.8215 11.7344 13.4687V27.5312C11.7344 28.1785 12.259 28.7031 12.9062 28.7031H20.7188C21.366 28.7031 21.8906 28.1785 21.8906 27.5312V13.4688C21.8906 12.8215 21.366 12.2969 20.7188 12.2969ZM29.3125 16.9844V24.0156H30.0937C30.7409 24.0156 31.2656 23.491 31.2656 22.8438V18.1562C31.2656 17.509 30.7409 16.9844 30.0937 16.9844H29.3125ZM26.1875 26.3594H23.8438V14.6406H26.1875C26.8347 14.6406 27.3594 15.1653 27.3594 15.8125V25.1875C27.3594 25.8347 26.8347 26.3594 26.1875 26.3594Z" fill="white"/>
<path d="M17.4166 17.0832C17.4166 16.8531 17.2301 16.6665 17 16.6665C16.7698 16.6665 16.5833 16.8531 16.5833 17.0832V19.5832H14.0833C13.8532 19.5832 13.6666 19.7697 13.6666 19.9998C13.6666 20.23 13.8532 20.4165 14.0833 20.4165H16.5833V22.9165C16.5833 23.1466 16.7698 23.3332 17 23.3332C17.2301 23.3332 17.4166 23.1466 17.4166 22.9165V20.4165H19.9166C20.1467 20.4165 20.3333 20.23 20.3333 19.9998C20.3333 19.7697 20.1467 19.5832 19.9166 19.5832H17.4166V17.0832Z" fill="white"/>
<rect x="12" y="15" width="10" height="10" rx="2" stroke="black"/>
</svg>
