<svg width="39" height="39" viewBox="0 0 39 39" fill="none" xmlns="http://www.w3.org/2000/svg">
<path fill-rule="evenodd" clip-rule="evenodd" d="M14.3686 10.8611C12.935 10.8611 11.7728 12.0233 11.7728 13.4569V25.1379C11.7728 26.5715 12.935 27.7337 14.3686 27.7337H26.0496C27.4832 27.7337 28.6454 26.5715 28.6454 25.1379V13.4569C28.6454 12.0233 27.4832 10.8611 26.0496 10.8611H14.3686ZM26.0496 12.4835H14.3686C13.831 12.4835 13.3952 12.9193 13.3952 13.4569V14.5926H27.023V13.4569C27.023 12.9193 26.5872 12.4835 26.0496 12.4835ZM13.3952 25.1379V16.2149H16.8021V26.1113H14.3686C13.831 26.1113 13.3952 25.6755 13.3952 25.1379ZM18.4245 26.1113H26.0496C26.5872 26.1113 27.023 25.6755 27.023 25.1379V16.2149H18.4245V26.1113Z" fill="white"/>
<path fill-rule="evenodd" clip-rule="evenodd" d="M14.3686 10.8611C12.935 10.8611 11.7728 12.0233 11.7728 13.4569V25.1379C11.7728 26.5715 12.935 27.7337 14.3686 27.7337H26.0496C27.4832 27.7337 28.6454 26.5715 28.6454 25.1379V13.4569C28.6454 12.0233 27.4832 10.8611 26.0496 10.8611H14.3686ZM26.0496 12.4835H14.3686C13.831 12.4835 13.3952 12.9193 13.3952 13.4569V14.5926H27.023V13.4569C27.023 12.9193 26.5872 12.4835 26.0496 12.4835ZM13.3952 25.1379V16.2149H16.8021V26.1113H14.3686C13.831 26.1113 13.3952 25.6755 13.3952 25.1379ZM18.4245 26.1113H26.0496C26.5872 26.1113 27.023 25.6755 27.023 25.1379V16.2149H18.4245V26.1113Z" fill="white"/>
</svg>
